PathFileType	4	(X/Y/Z)	/Users/itak/Documents/Research/Walk-IL/dataset/trc/00198_00008.trc
DataRate	CameraRate	NumFrames	NumMarkers	Units	OrigDataRate	OrigDataStartFrame	OrigNumFrames
100.000000	100.000000	4	53	mm	100.000000	472	540
Frame#	Time	RPSI			LPSI			L3			STRN			T10			C7			CLAV			RBAK			LBAK			LSHO			LUPA			LAEL			LAOL			LWTS			LWPS			LFRA			LIFD			LHPS			LHTS			RSHO			RUPA			RAEL			RAOL			RWTS			RWPS			RFRA			RIFD			RHTS			RHPS			RBHD			LFHD			RFHD			LBHD			LHIP			RHIP			RASI			LASI			LKNE			LTHI			LANK			LTIP			LTOE			LMT1			LMT5			LHEE			RKNE			RTHI			RANK			RTIP			RTOE			RMT1			RMT5			RHEE			
		X1	Y1	Z1	X2	Y2	Z2	X3	Y3	Z3	X4	Y4	Z4	X5	Y5	Z5	X6	Y6	Z6	X7	Y7	Z7	X8	Y8	Z8	X9	Y9	Z9	X10	Y10	Z10	X11	Y11	Z11	X12	Y12	Z12	X13	Y13	Z13	X14	Y14	Z14	X15	Y15	Z15	X16	Y16	Z16	X17	Y17	Z17	X18	Y18	Z18	X19	Y19	Z19	X20	Y20	Z20	X21	Y21	Z21	X22	Y22	Z22	X23	Y23	Z23	X24	Y24	Z24	X25	Y25	Z25	X26	Y26	Z26	X27	Y27	Z27	X28	Y28	Z28	X29	Y29	Z29	X30	Y30	Z30	X31	Y31	Z31	X32	Y32	Z32	X33	Y33	Z33	X34	Y34	Z34	X35	Y35	Z35	X36	Y36	Z36	X37	Y37	Z37	X38	Y38	Z38	X39	Y39	Z39	X40	Y40	Z40	X41	Y41	Z41	X42	Y42	Z42	X43	Y43	Z43	X44	Y44	Z44	X45	Y45	Z45	X46	Y46	Z46	X47	Y47	Z47	X48	Y48	Z48	X49	Y49	Z49	X50	Y50	Z50	X51	Y51	Z51	X52	Y52	Z52	X53	Y53	Z53	

473	4.72	529.6544799804688	1066.859252929688	949.6005249023438	653.7772827148438	1063.721069335938	962.650634765625	590.71923828125	1101.54052734375	957.2047729492188	577.8623046875	1310.655517578125	1214.93896484375	607.0811157226562	1258.914916992188	919.7576293945312	619.2327880859375	1527.329711914062	989.3705444335938	592.9105834960938	1423.761840820312	1188.515502929688	512.4476318359375	1356.055419921875	909.2703857421875	719.3533935546875	1499.802368164062	992.9006958007812	787.407958984375	1486.1708984375	1077.460815429688	862.8737182617188	1353.709350585938	1061.488525390625	883.27197265625	1139.693115234375	1105.068725585938	816.3157348632812	1113.331298828125	1052.99609375	834.7025146484375	954.4595336914062	1276.305419921875	879.0786743164062	905.4804077148438	1208.358032226562	892.0957641601562	1035.415649414062	1149.753662109375	806.5252075195312	789.3488159179688	1352.3701171875	871.8292236328125	848.1175537109375	1252.528076171875	852.7354736328125	884.7789306640625	1313.698486328125	431.8951416015625	1510.05078125	1034.833984375	364.3823852539062	1444.910766601562	1008.107482910156	301.9892883300781	1158.265258789062	993.356201171875	398.6649780273438	1146.290649414062	999.029541015625	296.3414306640625	941.2256469726562	1148.052490234375	256.5035400390625	920.4008178710938	1070.4345703125	277.4138793945312	1087.900390625	1019.525024414062	311.4150390625	751.097412109375	1177.362060546875	283.0822143554688	849.4415893554688	1178.58447265625	253.1209411621094	839.3502197265625	1104.889404296875	541.7532958984375	1709.43212890625	1110.016845703125	687.5728149414062	1675.55419921875	1267.49755859375	560.0343627929688	1684.4150390625	1281.845703125	677.7196044921875	1710.482543945312	1090.83203125	760.7877807617188	997.8882446289062	1076.1767578125	388.5504760742188	1029.680908203125	1094.65673828125	439.4587097167969	1055.435546875	1179.744506835938	697.4490966796875	1037.450561523438	1196.337036132812	709.3906860351562	501.1734619140625	1088.9921875	740.6611328125	642.0506591796875	1096.228759765625	701.01025390625	39.64929580688477	1034.285278320312	718.48486328125	278.9644165039062	1063.60205078125	667.500244140625	45.24563980102539	1252.826904296875	621.93994140625	49.11977005004883	1201.120361328125	737.2584228515625	34.55262756347656	1143.26904296875	634.6412353515625	41.17235565185547	980.7696533203125	398.764892578125	523.9647216796875	1140.933471679688	371.8974914550781	798.1715087890625	1159.618041992188	381.8771057128906	40.75198364257812	1041.389038085938	410.9471740722656	402.2568359375	1148.419067382812	413.7429504394531	47.01362609863281	1265.108520507812	460.220703125	47.86322784423828	1210.707641601562	345.4193725585938	41.52655792236328	1153.515258789062	449.3951110839844	37.88991546630859	990.6387939453125	
474	4.73	529.1851196289062	1066.910034179688	951.535400390625	653.2715454101562	1063.734252929688	964.5608520507812	590.2008666992188	1101.534790039062	959.112060546875	577.456787109375	1310.587036132812	1216.800659179688	606.4373779296875	1258.898193359375	921.6511840820312	618.4335327148438	1527.353271484375	991.257568359375	592.3811645507812	1423.705810546875	1190.36865234375	511.78564453125	1355.954345703125	911.2162475585938	718.5524291992188	1499.921997070312	994.691650390625	786.7777709960938	1486.242553710938	1079.141357421875	862.0350952148438	1353.655639648438	1062.678955078125	881.444580078125	1139.156982421875	1104.960571289062	814.2476806640625	1113.589111328125	1052.767944335938	832.524658203125	951.4343872070312	1273.513305664062	876.8883056640625	903.4732055664062	1204.888793945312	890.0282592773438	1034.302612304688	1148.224853515625	803.9525756835938	785.0597534179688	1346.770385742188	869.3673706054688	845.3661499023438	1247.983520507812	850.2473754882812	881.0374145507812	1309.75390625	431.1620483398438	1509.899047851562	1036.8125	363.6686401367188	1444.765258789062	1010.075622558594	300.8650512695312	1158.2509765625	995.1510009765625	397.577880859375	1146.14794921875	1000.760803222656	295.1347961425781	941.2564086914062	1149.931518554688	255.2195587158203	920.4044799804688	1072.273681640625	276.2630004882812	1087.896484375	1021.349182128906	310.0240173339844	751.1419067382812	1179.382202148438	281.7211303710938	849.4905395507812	1180.459594726562	251.7196350097656	839.4177856445312	1106.80859375	540.6598510742188	1709.294921875	1112.493408203125	686.7133178710938	1675.204223632812	1269.696533203125	559.1805419921875	1683.799560546875	1284.213623046875	676.6326904296875	1710.680419921875	1093.161376953125	760.3698120117188	997.777099609375	1077.956420898438	388.2416381835938	1029.790771484375	1096.747802734375	439.248046875	1055.446655273438	1181.751098632812	697.1544189453125	1037.396728515625	1198.21435546875	708.9571533203125	501.097412109375	1089.794555664062	740.3501586914062	641.971923828125	1097.310424804688	700.9474487304688	39.76063919067383	1034.276245117188	718.2161865234375	278.9667053222656	1063.901123046875	667.5111694335938	45.27043914794922	1252.82470703125	621.9309692382812	49.09618759155273	1201.106079101562	737.2186889648438	34.5867919921875	1143.25732421875	634.505859375	41.14368057250977	980.7750244140625	398.2173767089844	523.8018798828125	1139.4951171875	371.7512817382812	797.796630859375	1160.429931640625	381.8270263671875	40.69354248046875	1041.395385742188	410.7244262695312	402.4997863769531	1147.192749023438	413.7654418945312	46.98344421386719	1265.11865234375	460.2200622558594	47.83880615234375	1210.711791992188	345.4102783203125	41.51441192626953	1153.50927734375	449.3668823242188	37.87112045288086	990.62744140625	
475	4.74	528.7166137695312	1066.903686523438	953.4517211914062	652.7664794921875	1063.696533203125	966.4525146484375	589.6786499023438	1101.471801757812	961.0001220703125	577.0120239257812	1310.474487304688	1218.644897460938	605.81494140625	1258.815307617188	923.5277099609375	617.6619262695312	1527.320068359375	993.1015014648438	591.8203735351562	1423.588012695312	1192.181762695312	511.1771545410156	1355.778076171875	913.0933227539062	717.7816772460938	1499.9716796875	996.4733276367188	786.1633911132812	1486.226928710938	1080.829223632812	861.1910400390625	1353.507568359375	1063.868774414062	879.605712890625	1138.533569335938	1104.790161132812	812.1492309570312	1113.78515625	1052.4931640625	830.360595703125	948.20458984375	1270.449584960938	874.7720336914062	901.3543701171875	1201.166381835938	887.9719848632812	1033.105224609375	1146.551879882812	801.525146484375	780.6520385742188	1340.8134765625	866.9825439453125	842.4779663085938	1243.101684570312	847.7700805664062	877.0781860351562	1305.470825195312	430.4554443359375	1509.6748046875	1038.698974609375	362.9739074707031	1444.55859375	1011.932678222656	299.7266540527344	1158.163940429688	996.8298950195312	396.4909973144531	1145.93505859375	1002.400268554688	293.9462890625	941.271240234375	1151.772094726562	253.9383239746094	920.3538208007812	1074.083129882812	275.1261901855469	1087.822875976562	1023.085021972656	308.6498413085938	751.1936645507812	1181.442138671875	280.3770141601562	849.5223999023438	1182.337036132812	250.3339385986328	839.4365234375	1108.713256835938	539.5687255859375	1709.101440429688	1114.8388671875	685.7811279296875	1674.861450195312	1271.843505859375	558.2491455078125	1683.1904296875	1286.471923828125	675.5508422851562	1710.827880859375	1095.426879882812	759.9496459960938	997.6401977539062	1079.75048828125	387.9225463867188	1029.861083984375	1098.818969726562	438.9765319824219	1055.36572265625	1183.72021484375	696.845947265625	1037.311889648438	1200.129760742188	708.5089111328125	500.99853515625	1090.566162109375	740.049560546875	641.8707885742188	1098.343627929688	700.8768920898438	39.87683486938477	1034.26171875	717.9354858398438	278.970703125	1064.206420898438	667.5203247070312	45.2998161315918	1252.817749023438	621.9154052734375	49.06323623657227	1201.082641601562	737.1724243164062	34.62765502929688	1143.246215820312	634.35546875	41.08647918701172	980.7738647460938	397.7598266601562	523.5885620117188	1137.96044921875	371.4796142578125	797.2734375	1161.018188476562	381.8463745117188	40.67427444458008	1041.384521484375	410.5318603515625	402.740234375	1145.897583007812	413.8015441894531	46.94895172119141	1265.136108398438	460.2450256347656	47.7953987121582	1210.719360351562	345.434814453125	41.52474594116211	1153.505981445312	449.3826293945312	37.83646011352539	990.6240234375	
476	4.75	528.2528686523438	1066.838500976562	955.3424682617188	652.2779541015625	1063.602172851562	968.32275390625	589.1677856445312	1101.34912109375	962.8641967773438	576.5263671875	1310.311767578125	1220.46142578125	605.2145385742188	1258.671264648438	925.3823852539062	616.9197998046875	1527.232788085938	994.9039916992188	591.22802734375	1423.406127929688	1193.951538085938	510.6173095703125	1355.533813476562	914.9020385742188	717.04150390625	1499.953491210938	998.2440795898438	785.5680541992188	1486.121704101562	1082.52001953125	860.3447265625	1353.2607421875	1065.0537109375	877.7564697265625	1137.8251953125	1104.566162109375	810.0338134765625	1113.917724609375	1052.179077148438	828.2227172851562	944.7991333007812	1267.13232421875	872.7354125976562	899.1452026367188	1197.201049804688	885.9307250976562	1031.834350585938	1144.749267578125	799.2647094726562	776.1929931640625	1334.54296875	864.696533203125	839.4801025390625	1237.91015625	845.3240966796875	872.9299926757812	1300.866333007812	429.7730712890625	1509.380126953125	1040.497680664062	362.2963256835938	1444.29443359375	1013.686645507812	298.5885009765625	1158.008178710938	998.4069213867188	395.412353515625	1145.655151367188	1003.962829589844	292.7780151367188	941.261962890625	1153.571044921875	252.6775512695312	920.2478637695312	1075.863525390625	274.0144958496094	1087.679931640625	1024.743896484375	307.2823486328125	751.2369995117188	1183.509643554688	279.0655212402344	849.5357666015625	1184.221801757812	248.9711608886719	839.4027099609375	1110.589477539062	538.4888305664062	1708.852783203125	1117.053955078125	684.7769165039062	1674.516967773438	1273.940795898438	557.2429809570312	1682.583984375	1288.624389648438	674.4785766601562	1710.919311523438	1097.633911132812	759.5232543945312	997.4747314453125	1081.567138671875	387.5936279296875	1029.8955078125	1100.860107421875	438.6377258300781	1055.198486328125	1185.650756835938	696.5284423828125	1037.205444335938	1202.089721679688	708.0437622070312	500.8742370605469	1091.336791992188	739.73974609375	641.746337890625	1099.3603515625	700.7962036132812	39.99947738647461	1034.242919921875	717.6376342773438	278.9708251953125	1064.536743164062	667.52587890625	45.33240127563477	1252.806762695312	621.8916015625	49.01858520507812	1201.052001953125	737.1160278320312	34.67585754394531	1143.235961914062	634.1908569335938	41.00349044799805	980.7669067382812	397.3722839355469	523.3362426757812	1136.354370117188	371.0517578125	796.6109619140625	1161.373657226562	381.9253234863281	40.68944549560547	1041.35791015625	410.3525085449219	402.9775390625	1144.55224609375	413.8465270996094	46.91382217407227	1265.159423828125	460.2892456054688	47.73887634277344	1210.728637695312	345.4853820800781	41.55057144165039	1153.50341796875	449.4366149902344	37.78821182250977	990.6263427734375	
